<svg xmlns="http://www.w3.org/2000/svg" width="3072" height="1919">
    <path d="M17.981 14.58h3037.56v1890.698H17.98z" fill="#fff" fill-rule="evenodd" stroke="#0061b2" stroke-width="32"/>
    <path d="M120.569 132.887H2934.12v397.72H120.57z" fill="#0061b2" fill-rule="evenodd"/>
    <path d="M120.569 1389.736H2934.12v397.72H120.57z" fill="#fdb827" fill-rule="evenodd"/>
    <path d="M588.281 631.781l.031.188H472.656v19.656c90.263 2.872 117.212 45.341 127.188 94.781l53.218 527.75h175.125l374.157-642.375h-175.125l-224.875 386.094-38.938-386.094z" fill="#0061b2" fill-rule="evenodd"/>
    <path d="M1295.617 631.4h169.97L1257.132 1274.4h-169.97z" fill="#0061b2" fill-rule="evenodd"/>
    <path d="M2232.063 644.219l-328.72 630.187h184.407l47.969-96.219h214.062l7.344 96.22h169.969L2479 644.218h-246.938zm89.312 161.718l20.344 266.438H2188.5z" fill="#0061b2" fill-rule="evenodd"/>
    <path d="M1507.277 794.956c25.505-101.96 109.229-171.573 251.747-171.573 133.502 0 232.505 83.382 232.505 83.382l-101.02 105.83s-74.672-57.726-118.657-57.726c-58.159 0-84.422 21.237-89.795 56.122-10.714 69.56 237.142 112.132 229.298 274.196-5.238 108.23-117.255 213.264-245.333 213.264-192.057 0-287.024-76.967-287.024-76.967l86.588-123.469s86.794 69.524 168.366 65.743c55.034-2.55 97.451-23.641 94.606-60.932-6.45-84.525-267.447-123.323-221.281-307.87z" fill="#0061b2"/>
    <path d="M2547.205 644.198c-5.932 0-11.744 1.523-17.395 4.569-5.651 3.046-10.044 7.429-13.213 13.099-3.17 5.67-4.753 11.577-4.753 17.732 0 6.092 1.567 11.949 4.69 17.572 3.121 5.623 7.481 9.99 13.085 13.099 5.605 3.108 11.467 4.665 17.586 4.665 6.12 0 11.981-1.557 17.586-4.665 5.604-3.108 9.948-7.476 13.054-13.1 3.107-5.622 4.658-11.48 4.658-17.571 0-6.155-1.568-12.062-4.721-17.732-3.154-5.67-7.562-10.053-13.213-13.1-5.651-3.045-11.432-4.568-17.364-4.568zm0 5.879c4.933 0 9.734 1.256 14.449 3.802 4.714 2.546 8.388 6.193 11.026 10.926 2.639 4.733 3.961 9.67 3.961 14.793 0 5.092-1.274 9.962-3.866 14.633-2.591 4.67-6.248 8.318-10.931 10.926-4.683 2.609-9.55 3.898-14.639 3.898-5.089 0-9.987-1.29-14.67-3.898-4.684-2.608-8.325-6.256-10.932-10.926-2.607-4.671-3.897-9.54-3.897-14.633 0-5.124 1.306-10.06 3.96-14.793 2.654-4.733 6.328-8.38 11.027-10.926 4.699-2.546 9.548-3.802 14.512-3.802z" style="text-align:start" font-size="60" font-weight="400" fill="#0061b2" font-family="Arial"/>
    <path d="M2532.572 660.115v41.689h6.175v-17.712h3.628c2.164 0 3.805.477 4.934 1.435 1.63 1.301 3.795 4.563 6.461 9.731l3.374 6.546h7.511l-4.647-8.156c-2.226-3.867-4.096-6.618-5.633-8.26-.816-.856-1.898-1.59-3.247-2.206 3.293-.274 5.934-1.556 7.925-3.815 1.992-2.259 2.992-4.9 2.993-7.946 0-2.156-.623-4.174-1.815-6.09-1.192-1.917-2.767-3.29-4.774-4.06-2.007-.77-5.255-1.156-9.74-1.156h-13.145zm6.175 5.67h7.002c3.011 0 5.093.222 6.207.7a5.747 5.747 0 012.61 2.206c.627.975.923 2.058.923 3.29 0 1.917-.64 3.457-1.942 4.62-1.301 1.164-3.745 1.75-7.32 1.75h-7.48v-12.565z" style="text-align:start" font-size="60" font-weight="400" fill="#0061b2" font-family="Arial"/>
    <path style="text-align:start" d="M2873.127 1692.395c-5.932 0-11.745 1.523-17.396 4.569-5.65 3.046-10.044 7.429-13.213 13.099-3.169 5.67-4.752 11.577-4.752 17.732 0 6.091 1.567 11.948 4.69 17.572 3.121 5.623 7.481 9.99 13.085 13.099 5.604 3.108 11.466 4.664 17.586 4.664 6.12 0 11.981-1.556 17.585-4.664 5.605-3.109 9.948-7.476 13.055-13.1 3.106-5.623 4.658-11.48 4.658-17.571 0-6.155-1.568-12.062-4.721-17.732-3.154-5.67-7.562-10.053-13.213-13.1-5.651-3.045-11.432-4.568-17.364-4.568zm0 5.879c4.933 0 9.734 1.256 14.449 3.802 4.714 2.546 8.388 6.193 11.026 10.926 2.638 4.733 3.96 9.67 3.96 14.793 0 5.092-1.273 9.962-3.865 14.632-2.591 4.67-6.248 8.318-10.931 10.927-4.684 2.608-9.55 3.898-14.64 3.898-5.088 0-9.987-1.29-14.67-3.898-4.683-2.609-8.324-6.256-10.931-10.927-2.607-4.67-3.898-9.54-3.898-14.632 0-5.124 1.307-10.06 3.961-14.793 2.654-4.733 6.328-8.38 11.027-10.927 4.699-2.546 9.548-3.801 14.512-3.801z" font-size="60" font-weight="400" fill="#0061b2" font-family="Arial"/>
    <path style="text-align:start" d="M2858.494 1708.312V1750h6.175v-17.712h3.628c2.164 0 3.805.477 4.934 1.435 1.63 1.3 3.795 4.563 6.46 9.731l3.375 6.546h7.511l-4.647-8.156c-2.226-3.868-4.097-6.618-5.633-8.26-.816-.856-1.898-1.59-3.247-2.206 3.293-.274 5.934-1.556 7.925-3.815 1.992-2.26 2.992-4.9 2.992-7.946 0-2.156-.622-4.174-1.814-6.09-1.192-1.917-2.767-3.29-4.774-4.061-2.007-.77-5.255-1.155-9.74-1.155h-13.145zm6.175 5.67h7.002c3.01 0 5.093.221 6.207.7a5.747 5.747 0 012.61 2.206c.627.975.923 2.058.923 3.29 0 1.917-.64 3.457-1.942 4.62-1.302 1.164-3.745 1.75-7.32 1.75h-7.48v-12.566z" font-size="60" font-weight="400" fill="#0061b2" font-family="Arial"/>
</svg>
